/* XPM */
static xpm_row_t c[] = {
"15 40 2 1",
" 	c None",
".	c #00FFFF",
"               ",
"               ",
"               ",
"               ",
"               ",
"               ",
"               ",
"               ",
"               ",
"               ",
"               ",
"               ",
"               ",
"               ",
"               ",
"               ",
"     .......   ",
"   ..........  ",
"  ...... ..... ",
"  ....    .... ",
" ....      ....",
" ....          ",
".....          ",
".....          ",
"....           ",
"....           ",
"....      .    ",
".....    ..... ",
" ....    ....  ",
" ...........   ",
"  .........    ",
"   .......     ",
"               ",
"               ",
"               ",
"               ",
"               ",
"               ",
"               ",
"               "};
