/* XPM */
static xpm_row_t e[] = {
"14 40 2 1",
" 	c None",
".	c #00FFFF",
"              ",
"              ",
"              ",
"              ",
"              ",
"              ",
"              ",
"              ",
"              ",
"              ",
"              ",
"              ",
"              ",
"              ",
"              ",
"              ",
"     ......   ",
"   .......... ",
"  .....  .... ",
" .....    ....",
" ....     ....",
" ....     ....",
"..............",
"..............",
"..............",
"....          ",
"....          ",
"....     ..   ",
" ....   ....  ",
" ...........  ",
"  .........   ",
"   ......     ",
"              ",
"              ",
"              ",
"              ",
"              ",
"              ",
"              ",
"              "};
