/* XPM */
static xpm_row_t f[] = {
"11 40 2 1",
" 	c None",
".	c #00FFFF",
"           ",
"           ",
"           ",
"           ",
"           ",
"           ",
"           ",
"           ",
"           ",
"           ",
"       ... ",
"     ..... ",
"    ...... ",
"   .....   ",
"   ....    ",
"   ....    ",
" ......... ",
".........  ",
".........  ",
"  ....     ",
"  ....     ",
"  ....     ",
"  ....     ",
" ....      ",
" ....      ",
" ....      ",
" ....      ",
" ....      ",
" ....      ",
"....       ",
"....       ",
"....       ",
"           ",
"           ",
"           ",
"           ",
"           ",
"           ",
"           ",
"           "};
