/* XPM */
static xpm_row_t h[] = {
"16 40 2 1",
" 	c None",
".	c #00FFFF",
"                ",
"                ",
"                ",
"                ",
"                ",
"                ",
"                ",
"                ",
"                ",
"                ",
"    ....        ",
"    ....        ",
"    ...         ",
"   ....         ",
"   ....         ",
"   ....         ",
"   ....  .....  ",
"   ............ ",
"   .............",
"  ......   .....",
"  .....     ....",
"  ....      ....",
"  ....     .... ",
" .....     .... ",
" ....      .... ",
" ....      .... ",
" ....      .... ",
" ....     ..... ",
" ....     ....  ",
"....      ....  ",
"....      ....  ",
"....      ....  ",
"                ",
"                ",
"                ",
"                ",
"                ",
"                ",
"                ",
"                "};
