/* XPM */
static xpm_row_t i[] = {
"9 40 2 1",
" 	c None",
".	c #00FFFF",
"         ",
"         ",
"         ",
"         ",
"         ",
"         ",
"         ",
"         ",
"         ",
"         ",
"     ... ",
"    .... ",
"    .... ",
"         ",
"         ",
"         ",
"   ..... ",
"   ....  ",
"   ....  ",
"   ....  ",
"  .....  ",
"  .....  ",
"  ....   ",
"  ....   ",
"  ....   ",
"  ....   ",
" .....   ",
" ....    ",
" ....    ",
" ....    ",
" ....    ",
" ...     ",
"         ",
"         ",
"         ",
"         ",
"         ",
"         ",
"         ",
"         "};
