/* XPM */
static xpm_row_t j[] = {
"12 40 2 1",
" 	c None",
".	c #00FFFF",
"            ",
"            ",
"            ",
"            ",
"            ",
"            ",
"            ",
"            ",
"            ",
"            ",
"        ....",
"        ....",
"        ....",
"            ",
"            ",
"            ",
"       .... ",
"       .... ",
"       .... ",
"      ....  ",
"      ....  ",
"      ....  ",
"      ....  ",
"     .....  ",
"     ....   ",
"     ....   ",
"     ....   ",
"     ....   ",
"     ....   ",
"    ....    ",
"    ....    ",
"    ....    ",
"    ....    ",
"   .....    ",
"  .....     ",
" ......     ",
" .....      ",
" ...        ",
"            ",
"            "};
