/* XPM */
static xpm_row_t l[] = {
"8 40 2 1",
" 	c None",
".	c #00FFFF",
"        ",
"        ",
"        ",
"        ",
"        ",
"        ",
"        ",
"        ",
"        ",
"        ",
"    ... ",
"    ....",
"   .... ",
"   .... ",
"   .... ",
"   .... ",
"   .... ",
"   ...  ",
"  ....  ",
"  ....  ",
"  ....  ",
"  ....  ",
"  ...   ",
" ....   ",
" ....   ",
" ....   ",
" ....   ",
" ....   ",
" ...    ",
"....    ",
"....    ",
"....    ",
"        ",
"        ",
"        ",
"        ",
"        ",
"        ",
"        ",
"        "};
