/* XPM */
static xpm_row_t m[] = {
"25 40 2 1",
" 	c None",
".	c #00FFFF",
"                         ",
"                         ",
"                         ",
"                         ",
"                         ",
"                         ",
"                         ",
"                         ",
"                         ",
"                         ",
"                         ",
"                         ",
"                         ",
"                         ",
"                         ",
"                         ",
"   ....  .....    .....  ",
"   .... .......  ....... ",
"   ............ ........ ",
"   .....   ......   .....",
"   ....    .....     ....",
"  .....    .....    .... ",
"  ....     ....     .... ",
"  ....     ....     .... ",
"  ....     ....     .... ",
"  ....     ....     .... ",
" ....      ...     ....  ",
" ....     ....     ....  ",
" ....     ....     ....  ",
" ....     ....     ....  ",
" ....     ....     ....  ",
" ....     ...      ....  ",
"                         ",
"                         ",
"                         ",
"                         ",
"                         ",
"                         ",
"                         ",
"                         "};
