/* XPM */
static xpm_row_t o[] = {
"16 40 2 1",
" 	c None",
".	c #00FFFF",
"                ",
"                ",
"                ",
"                ",
"                ",
"                ",
"                ",
"                ",
"                ",
"                ",
"                ",
"                ",
"                ",
"                ",
"                ",
"                ",
"     .......    ",
"    ..........  ",
"  ...... ...... ",
"  ....     .... ",
" ....      .....",
" ....      .....",
".....      .....",
"....       .....",
"....       .... ",
"....       .... ",
"....       .... ",
".....     ....  ",
" ....    .....  ",
" ............   ",
"  ..........    ",
"    ......      ",
"                ",
"                ",
"                ",
"                ",
"                ",
"                ",
"                ",
"                "};
