/* XPM */
static xpm_row_t s[] = {
"15 40 2 1",
" 	c None",
".	c #00FFFF",
"               ",
"               ",
"               ",
"               ",
"               ",
"               ",
"               ",
"               ",
"               ",
"               ",
"               ",
"               ",
"               ",
"               ",
"               ",
"               ",
"     .......   ",
"   ........... ",
"   ..... ..... ",
"  .....    ... ",
"  .....        ",
"  .....        ",
"   .......     ",
"   .........   ",
"     ........  ",
"       ....... ",
"         ..... ",
"   .     ..... ",
" ...     ....  ",
" ............  ",
"  ..........   ",
"    ......     ",
"               ",
"               ",
"               ",
"               ",
"               ",
"               ",
"               ",
"               "};
