/* XPM */
static xpm_row_t w[] = {
"24 40 2 1",
" 	c None",
".	c #00FFFF",
"                        ",
"                        ",
"                        ",
"                        ",
"                        ",
"                        ",
"                        ",
"                        ",
"                        ",
"                        ",
"                        ",
"                        ",
"                        ",
"                        ",
"                        ",
"                        ",
"....      ....      ....",
"....     .....     .... ",
" ...     .....     .... ",
" ...    ......     .... ",
" ...    ... ..    ....  ",
" ...   ...  ...   ....  ",
" ...   ...  ...  ....   ",
" ...  ....  ...  ....   ",
" ...  ...   ... ....    ",
" ... ....   ... ....    ",
" ... ...    ... ...     ",
" .......    .......     ",
" ......     ......      ",
" ......     ......      ",
" .....      ......      ",
"  ....      .....       ",
"                        ",
"                        ",
"                        ",
"                        ",
"                        ",
"                        ",
"                        ",
"                        "};
