/* XPM */
static xpm_row_t x[] = {
"18 40 2 1",
" 	c None",
".	c #00FFFF",
"                  ",
"                  ",
"                  ",
"                  ",
"                  ",
"                  ",
"                  ",
"                  ",
"                  ",
"                  ",
"                  ",
"                  ",
"                  ",
"                  ",
"                  ",
"                  ",
"   .....     .....",
"    ....    ..... ",
"    .....   ....  ",
"     ....  ....   ",
"      ... ....    ",
"      .......     ",
"       .....      ",
"       .....      ",
"      ......      ",
"     .......      ",
"     ... ....     ",
"    .... ....     ",
"   ....   ....    ",
"  ....    ....    ",
" ....      ....   ",
"....       ....   ",
"                  ",
"                  ",
"                  ",
"                  ",
"                  ",
"                  ",
"                  ",
"                  "};
