/* XPM */
static xpm_row_t z[] = {
"15 40 2 1",
" 	c None",
".	c #00FFFF",
"               ",
"               ",
"               ",
"               ",
"               ",
"               ",
"               ",
"               ",
"               ",
"               ",
"               ",
"               ",
"               ",
"               ",
"               ",
"               ",
"   ............",
"   ............",
"   ............",
"         ..... ",
"        .....  ",
"       .....   ",
"      .....    ",
"     ......    ",
"     ....      ",
"    .....      ",
"   ....        ",
"  .....        ",
" .....         ",
".............  ",
".............  ",
".............  ",
"               ",
"               ",
"               ",
"               ",
"               ",
"               ",
"               ",
"               "};
