/* XPM */
static xpm_row_t A[] = {
"21 40 2 1",
" 	c None",
".	c #00FFFF",
"                     ",
"                     ",
"                     ",
"                     ",
"                     ",
"                     ",
"                     ",
"                     ",
"                     ",
"                     ",
"                     ",
"            .....    ",
"            ......   ",
"           .......   ",
"          ........   ",
"          ........   ",
"         .... ....   ",
"         ...  ....   ",
"        ....  .....  ",
"       ....   .....  ",
"       ....    ....  ",
"      ....     ....  ",
"      ....     ....  ",
"     ..............  ",
"     ............... ",
"    ................ ",
"   ................. ",
"   ....        ..... ",
"  ....          .... ",
"  ....          .... ",
" ....           .....",
" ....            ....",
"                     ",
"                     ",
"                     ",
"                     ",
"                     ",
"                     ",
"                     ",
"                     "};
