/* XPM */
static xpm_row_t B_upper[] = {
"20 40 2 1",
" 	c None",
".	c #00FFFF",
"                    ",
"                    ",
"                    ",
"                    ",
"                    ",
"                    ",
"                    ",
"                    ",
"                    ",
"                    ",
"                    ",
"     ..........     ",
"    .............   ",
"    ............... ",
"    ............... ",
"    ....       .....",
"   .....       .....",
"   .....       .... ",
"   ....        .... ",
"   ...............  ",
"   ..............   ",
"  ..............    ",
"  ................  ",
"  ....        ..... ",
"  ....         .... ",
"  ....         .... ",
" .....        ..... ",
" .....        ..... ",
" .................  ",
" ................   ",
" ...............    ",
" ............       ",
"                    ",
"                    ",
"                    ",
"                    ",
"                    ",
"                    ",
"                    ",
"                    "};
