/* XPM */
static xpm_row_t E[] = {
"20 40 2 1",
" 	c None",
".	c #00FFFF",
"                    ",
"                    ",
"                    ",
"                    ",
"                    ",
"                    ",
"                    ",
"                    ",
"                    ",
"                    ",
"                    ",
"     .............. ",
"    ............... ",
"    ............... ",
"    ............... ",
"    ....            ",
"   ....             ",
"   ....             ",
"   ....             ",
"   ....             ",
"   ..............   ",
"  ...............   ",
"  ...............   ",
"  ....              ",
"  ....              ",
"  ....              ",
" ....               ",
" ....               ",
" ................   ",
" ................   ",
" ................   ",
" ...............    ",
"                    ",
"                    ",
"                    ",
"                    ",
"                    ",
"                    ",
"                    ",
"                    "};
