/* XPM */
static xpm_row_t I[] = {
"9 40 2 1",
" 	c None",
".	c #00FFFF",
"         ",
"         ",
"         ",
"         ",
"         ",
"         ",
"         ",
"         ",
"         ",
"         ",
"         ",
"     ... ",
"    .... ",
"    .... ",
"    .... ",
"    .... ",
"   ..... ",
"   ....  ",
"   ....  ",
"   ....  ",
"   ....  ",
"  .....  ",
"  ....   ",
"  ....   ",
"  ....   ",
"  ....   ",
" .....   ",
" ....    ",
" ....    ",
" ....    ",
" ....    ",
" ...     ",
"         ",
"         ",
"         ",
"         ",
"         ",
"         ",
"         ",
"         "};
