/* XPM */
static xpm_row_t J[] = {
"17 40 2 1",
" 	c None",
".	c #00FFFF",
"                 ",
"                 ",
"                 ",
"                 ",
"                 ",
"                 ",
"                 ",
"                 ",
"                 ",
"                 ",
"                 ",
"         ....... ",
"        ........ ",
"        ........ ",
"        ........ ",
"            .... ",
"            .... ",
"           ..... ",
"           ....  ",
"           ....  ",
"           ....  ",
"           ....  ",
"          ....   ",
"          ....   ",
"          ....   ",
"          ....   ",
".....     ....   ",
" ....    ....    ",
" ..... ......    ",
"  ..........     ",
"   .........     ",
"    ......       ",
"                 ",
"                 ",
"                 ",
"                 ",
"                 ",
"                 ",
"                 ",
"                 "};
