/* XPM */
static xpm_row_t L[] = {
"16 40 2 1",
" 	c None",
".	c #00FFFF",
"                ",
"                ",
"                ",
"                ",
"                ",
"                ",
"                ",
"                ",
"                ",
"                ",
"                ",
"     ...        ",
"    ....        ",
"    ....        ",
"    ....        ",
"    ....        ",
"   ....         ",
"   ....         ",
"   ....         ",
"   ....         ",
"   ....         ",
"  ....          ",
"  ....          ",
"  ....          ",
"  ....          ",
"  ....          ",
" ....           ",
" ....           ",
" ...............",
" .............. ",
" .............. ",
" .............. ",
"                ",
"                ",
"                ",
"                ",
"                ",
"                ",
"                ",
"                "};
