/* XPM */
static xpm_row_t M[] = {
"25 40 2 1",
" 	c None",
".	c #00FFFF",
"                         ",
"                         ",
"                         ",
"                         ",
"                         ",
"                         ",
"                         ",
"                         ",
"                         ",
"                         ",
"                         ",
"     .....         ......",
"    ......         ......",
"    ......        ...... ",
"    ......        ...... ",
"    ......       ....... ",
"   .......       ....... ",
"   ........     ... ...  ",
"   .... ...    .... ...  ",
"   ...  ...    ... ....  ",
"   ...  ...    ... ....  ",
"  ....  ...   ...  ....  ",
"  ....  ...  ....  ....  ",
"  ....  ...  ...   ...   ",
"  ...   ...  ...  ....   ",
"  ...   ... ...   ....   ",
" ....    ......   ....   ",
" ....    .....    ...    ",
" ....    ....     ...    ",
" ...     ....    ....    ",
" ...     ....    ....    ",
" ...     ...     ....    ",
"                         ",
"                         ",
"                         ",
"                         ",
"                         ",
"                         ",
"                         ",
"                         "};
