/* XPM */
static xpm_row_t N[] = {
"22 40 2 1",
" 	c None",
".	c #00FFFF",
"                      ",
"                      ",
"                      ",
"                      ",
"                      ",
"                      ",
"                      ",
"                      ",
"                      ",
"                      ",
"                      ",
"     ....         ... ",
"    ......       .... ",
"    ......       .... ",
"    ......       .... ",
"    .......      .... ",
"   ........      ...  ",
"   .... ...      ...  ",
"   .... ....    ....  ",
"   ...   ...    ....  ",
"   ...   ...    ....  ",
"  ....   ....   ...   ",
"  ....   ....  ....   ",
"  ....    ...  ....   ",
"  ...     ...  ....   ",
"  ...     .... ....   ",
" ....      ... ...    ",
" ....      .......    ",
" ....      .......    ",
" ...        ......    ",
" ...        ......    ",
" ...         ....     ",
"                      ",
"                      ",
"                      ",
"                      ",
"                      ",
"                      ",
"                      ",
"                      "};
