/* XPM */
static xpm_row_t O[] = {
"22 40 2 1",
" 	c None",
".	c #00FFFF",
"                      ",
"                      ",
"                      ",
"                      ",
"                      ",
"                      ",
"                      ",
"                      ",
"                      ",
"                      ",
"                      ",
"         .......      ",
"      ............    ",
"     ..............   ",
"    .......  .......  ",
"   .....       ...... ",
"  .....         ..... ",
"  ....           .... ",
" .....           .... ",
" ....            .... ",
" ....            .... ",
" ....            .... ",
".....            .... ",
".....           ..... ",
".....           ....  ",
" ....          .....  ",
" ....          ....   ",
" .....        .....   ",
"  ......   .......    ",
"   ..............     ",
"    ...........       ",
"      .......         ",
"                      ",
"                      ",
"                      ",
"                      ",
"                      ",
"                      ",
"                      ",
"                      "};
