/* XPM */
static xpm_row_t P[] = {
"19 40 2 1",
" 	c None",
".	c #00FFFF",
"                   ",
"                   ",
"                   ",
"                   ",
"                   ",
"                   ",
"                   ",
"                   ",
"                   ",
"                   ",
"                   ",
"     ........      ",
"    ............   ",
"    .............  ",
"    .............. ",
"   ....       .... ",
"   ....       .....",
"   ....       .....",
"   ....       .....",
"   ....       .... ",
"   ....      ..... ",
"  ................ ",
"  ..............   ",
"  .............    ",
"  ..........       ",
"  ....             ",
" ....              ",
" ....              ",
" ....              ",
" ....              ",
" ....              ",
" ...               ",
"                   ",
"                   ",
"                   ",
"                   ",
"                   ",
"                   ",
"                   ",
"                   "};
