/* XPM */
static xpm_row_t R_upper[] = {
"22 40 2 1",
" 	c None",
".	c #00FFFF",
"                      ",
"                      ",
"                      ",
"                      ",
"                      ",
"                      ",
"                      ",
"                      ",
"                      ",
"                      ",
"                      ",
"     ...........      ",
"     ..............   ",
"    ................  ",
"    ................. ",
"    ....        ..... ",
"    ....         .....",
"    ....         .....",
"   .....         .... ",
"   ....         ..... ",
"   .......... ....... ",
"   .................  ",
"   ...............    ",
"  ..............      ",
"  ....      ....      ",
"  ....      .....     ",
"  ....       ....     ",
"  ....       .....    ",
" .....        ....    ",
" ....         .....   ",
" ....          ....   ",
" ....          .....  ",
"                      ",
"                      ",
"                      ",
"                      ",
"                      ",
"                      ",
"                      ",
"                      "};
