/* XPM */
static xpm_row_t X[] = {
"23 40 2 1",
" 	c None",
".	c #00FFFF",
"                       ",
"                       ",
"                       ",
"                       ",
"                       ",
"                       ",
"                       ",
"                       ",
"                       ",
"                       ",
"                       ",
"     ....         .... ",
"     ....        ..... ",
"      ....       ....  ",
"      ....      ....   ",
"       ....    ....    ",
"       ....   ....     ",
"        .... ....      ",
"        ........       ",
"         ......        ",
"         ......        ",
"         .....         ",
"        .......        ",
"        .......        ",
"       .... ....       ",
"      ....  ....       ",
"     ....    ....      ",
"    ....     ....      ",
"   ....       ....     ",
"  .....       ....     ",
" .....         ....    ",
" ....          ....    ",
"                       ",
"                       ",
"                       ",
"                       ",
"                       ",
"                       ",
"                       ",
"                       "};
