/* XPM */
static xpm_row_t Y[] = {
"20 40 2 1",
" 	c None",
".	c #00FFFF",
"                    ",
"                    ",
"                    ",
"                    ",
"                    ",
"                    ",
"                    ",
"                    ",
"                    ",
"                    ",
"                    ",
" ....           ....",
" ....          .... ",
" .....        ....  ",
"  ....       ....   ",
"   ....      ....   ",
"   ....     ....    ",
"   ....    ....     ",
"    ....  ....      ",
"    .... ....       ",
"     ........       ",
"     .......        ",
"      .....         ",
"      ....          ",
"      ....          ",
"      ....          ",
"     ....           ",
"     ....           ",
"     ....           ",
"     ....           ",
"     ....           ",
"     ...            ",
"                    ",
"                    ",
"                    ",
"                    ",
"                    ",
"                    ",
"                    ",
"                    "};
