/* XPM */
static xpm_row_t ponto[] = {
"6 40 2 1",
" 	c None",
".	c #00FFFF",
"      ",
"      ",
"      ",
"      ",
"      ",
"      ",
"      ",
"      ",
"      ",
"      ",
"      ",
"      ",
"      ",
"      ",
"      ",
"      ",
"      ",
"      ",
"      ",
"      ",
"      ",
"      ",
"      ",
"      ",
"      ",
"      ",
"      ",
"      ",
" .... ",
" .... ",
" .... ",
" ...  ",
"      ",
"      ",
"      ",
"      ",
"      ",
"      ",
"      ",
"      "};
