/* XPM */
static xpm_row_t pontoeVirgula[] = {
"8 40 2 1",
" 	c None",
".	c #000000",
"        ",
"        ",
"        ",
"        ",
"        ",
"        ",
"        ",
"        ",
"        ",
"        ",
"        ",
"        ",
"        ",
"        ",
"        ",
"        ",
"        ",
"    ....",
"    ....",
"    ... ",
"   .... ",
"        ",
"        ",
"        ",
"        ",
"        ",
"        ",
"  ....  ",
"  ....  ",
"  ....  ",
" ....   ",
" ....   ",
"   ..   ",
"  ..    ",
" ...    ",
" ..     ",
"        ",
"        ",
"        ",
"        "};
